<?xml version="1.0" standalone="no"?>
<!DOCTYPE svg PUBLIC "-//W3C//DTD SVG 20010904//EN"
 "http://www.w3.org/TR/2001/REC-SVG-20010904/DTD/svg10.dtd">
<svg version="1.0" xmlns="http://www.w3.org/2000/svg"
 width="700.000000pt" height="700.000000pt" viewBox="0 0 700.000000 700.000000"
 preserveAspectRatio="xMidYMid meet">
<metadata>
Created by potrace 1.14, written by Peter Selinger 2001-2017
</metadata>
<g transform="translate(0.000000,700.000000) scale(0.100000,-0.100000)"
fill="#000000" stroke="none">
<path d="M0 3500 l0 -3500 3500 0 3500 0 0 3500 0 3500 -3500 0 -3500 0 0
-3500z m4685 3340 c4 -6 -5 -10 -19 -10 -14 0 -26 5 -26 10 0 6 9 10 19 10 11
0 23 -4 26 -10z m-510 -524 c30 -8 50 -19 50 -27 0 -11 -14 -13 -65 -10 -36 2
-67 5 -68 6 -8 7 10 45 21 45 7 -1 35 -7 62 -14z m1460 -596 c-5 -8 -11 -8
-21 1 -12 10 -12 14 -2 20 16 10 33 -5 23 -21z m-2405 -86 c0 -8 -5 -12 -10
-9 -6 4 -8 11 -5 16 9 14 15 11 15 -7z m239 -120 c-14 -17 -35 -18 -45 -3 -9
15 13 28 37 22 15 -4 17 -8 8 -19z m561 12 c0 -9 -40 -13 -46 -5 -3 5 6 9 20
9 14 0 26 -2 26 -4z m729 -220 c-10 -9 -79 -14 -74 -5 4 5 22 9 42 9 20 0 34
-2 32 -4z m-3276 -342 c-4 -12 -8 -13 -14 -3 -9 15 -2 32 11 24 5 -3 6 -13 3
-21z m2527 16 c11 -7 3 -10 -30 -9 -34 0 -40 2 -25 9 27 12 37 12 55 0z m975
-138 c-5 -28 -8 -32 -21 -21 -28 23 -33 44 -22 90 18 70 32 75 41 15 4 -28 5
-66 2 -84z m-2935 -87 c0 -7 -6 -18 -14 -24 -17 -14 -30 11 -20 41 4 15 9 17
20 7 8 -6 14 -17 14 -24z m1183 -56 l-9 -54 -13 54 c-11 45 -11 55 0 62 24 14
31 -7 22 -62z m-3063 41 c0 -11 -2 -20 -4 -20 -2 0 -6 9 -9 20 -3 11 -1 20 4
20 5 0 9 -9 9 -20z m2080 -200 c0 -5 -4 -10 -10 -10 -5 0 -10 5 -10 10 0 6 5
10 10 10 6 0 10 -4 10 -10z m1640 0 c0 -5 -4 -10 -10 -10 -5 0 -10 5 -10 10 0
6 5 10 10 10 6 0 10 -4 10 -10z m-1200 -334 c-15 -15 -33 4 -19 20 10 12 14
12 20 2 5 -7 4 -17 -1 -22z m430 -326 c0 -5 -2 -10 -4 -10 -3 0 -8 5 -11 10
-3 6 -1 10 4 10 6 0 11 -4 11 -10z m686 -213 c3 -2 -30 -8 -72 -12 -80 -7
-108 1 -86 28 9 11 24 11 82 1 39 -6 73 -14 76 -17z m2811 -9 c-3 -8 -6 -5 -6
6 -1 11 2 17 5 13 3 -3 4 -12 1 -19z m-1197 -533 c0 -32 -2 -34 -19 -23 -18
11 -18 13 -3 35 10 12 18 23 20 23 1 0 2 -16 2 -35z m140 -1532 c0 -4 -7 -15
-17 -25 -15 -17 -17 -17 -35 -1 -17 15 -17 18 -2 34 13 14 21 16 35 8 11 -5
19 -13 19 -16z m-4172 -315 c18 -18 15 -28 -8 -28 -13 0 -20 7 -20 20 0 23 10
26 28 8z m97 -118 c3 -5 1 -10 -4 -10 -6 0 -11 5 -11 10 0 6 2 10 4 10 3 0 8
-4 11 -10z m234 -4 c9 -11 8 -15 -5 -20 -21 -8 -34 1 -27 19 7 19 17 19 32 1z
m-1112 -18 c-3 -8 -6 -5 -6 6 -1 11 2 17 5 13 3 -3 4 -12 1 -19z m5793 6 c0
-8 -5 -12 -10 -9 -6 4 -8 11 -5 16 9 14 15 11 15 -7z m-4800 -104 c0 -5 -4
-10 -10 -10 -5 0 -10 5 -10 10 0 6 5 10 10 10 6 0 10 -4 10 -10z m1850 -336
c0 -8 -5 -12 -10 -9 -6 4 -8 11 -5 16 9 14 15 11 15 -7z"/>
</g>
</svg>
